<?xml version="1.0" encoding="UTF-8" standalone="no"?>
<svg
   xmlns:dc="http://purl.org/dc/elements/1.1/"
   xmlns:cc="http://creativecommons.org/ns#"
   xmlns:rdf="http://www.w3.org/1999/02/22-rdf-syntax-ns#"
   xmlns:svg="http://www.w3.org/2000/svg"
   xmlns="http://www.w3.org/2000/svg"
   viewBox="0 0 224 286.21332"
   height="286.21332"
   width="224"
   xml:space="preserve"
   version="1.1"
   id="svg2"><metadata
     id="metadata8"><rdf:RDF><cc:Work
         rdf:about=""><dc:format>image/svg+xml</dc:format><dc:type
           rdf:resource="http://purl.org/dc/dcmitype/StillImage" /></cc:Work></rdf:RDF></metadata><defs
     id="defs6" /><g
     transform="matrix(1.3333333,0,0,-1.3333333,0,286.21333)"
     id="g10"><g
       transform="scale(0.1)"
       id="g12"><path
         id="path14"
         style="fill:#e13633;fill-opacity:1;fill-rule:nonzero;stroke:none"
         d="m 1545.25,198.059 c 17.02,0 33.3,-4.239 48.94,-12.735 15.61,-8.496 27.93,-20.664 36.85,-36.504 8.93,-15.882 13.42,-32.472 13.42,-49.7848 0,-17.2579 -4.4,-33.7032 -13.16,-49.336 C 1622.54,34.0547 1610.34,21.8555 1594.67,13.125 1578.98,4.36719 1562.5,0 1545.25,0 c -17.29,0 -33.75,4.36719 -49.43,13.125 -15.66,8.7305 -27.87,20.9297 -36.66,36.5742 -8.73,15.6328 -13.12,32.0781 -13.12,49.336 0,17.3128 4.45,33.9028 13.42,49.7848 8.91,15.84 21.2,28.008 36.84,36.504 15.61,8.496 31.93,12.735 48.95,12.735 z m -0.07,-20.09 c -13.6,0 -26.63,-3.379 -39.13,-10.137 -12.48,-6.73 -22.31,-16.414 -29.49,-29.062 -7.17,-12.629 -10.76,-25.832 -10.76,-39.6762 0,-13.75 3.47,-26.8555 10.53,-39.3165 6.99,-12.4414 16.77,-22.1875 29.35,-29.1914 12.57,-6.9921 25.71,-10.4961 39.5,-10.4961 13.86,0 27.04,3.504 39.57,10.4961 12.5,7.0039 22.3,16.75 29.36,29.1914 7.05,12.461 10.58,25.5665 10.58,39.3165 0,13.8442 -3.59,27.0472 -10.76,39.6762 -7.17,12.648 -17.04,22.332 -29.57,29.062 -12.53,6.758 -25.57,10.137 -39.18,10.137 z m -43.68,-131.0823 0,103.3403 20.76,0 c 19.4,0 30.25,-0.098 32.64,-0.274 6.86,-0.598 12.18,-1.976 16.01,-4.121 3.79,-2.16 6.95,-5.449 9.53,-9.934 2.57,-4.421 3.83,-9.382 3.83,-14.773 0,-7.473 -2.42,-13.867 -7.25,-19.133 -4.86,-5.3201 -11.65,-8.6131 -20.38,-9.8709 3.16,-1.1914 5.66,-2.4414 7.38,-3.8906 1.74,-1.3633 4.1,-4.0313 7.15,-7.918 0.78,-1.0156 3.37,-5.2344 7.76,-12.5859 l 12.87,-20.8399 -26.34,0 -9.09,16.6485 c -6.19,11.1523 -11.04,18.1836 -14.59,21.1132 -3.57,2.8711 -8.05,4.336 -13.55,4.336 l -5.07,0 0,-42.0977 -21.66,0 z m 21.66,58.3593 8.06,0 c 11.55,0 18.69,0.449 21.48,1.406 2.78,0.953 4.96,2.637 6.57,5 1.62,2.364 2.45,5.047 2.45,8.106 0,2.926 -0.8,5.496 -2.38,7.793 -1.57,2.285 -3.8,3.926 -6.7,4.91 -2.9,0.988 -10.06,1.496 -21.42,1.496 l -8.06,0 0,-28.711" /><path
         id="path16"
         style="fill:#e13633;fill-opacity:1;fill-rule:nonzero;stroke:none"
         d="M 1680,343.879 C 1159.37,46.9062 520.637,46.9062 0,343.879 0,870.539 0,1397.21 0,1923.88 c 520.637,296.95 1159.37,296.95 1680,0 0,-526.67 0,-1053.341 0,-1580.001" /><path
         id="path18"
         style="fill:#ffffff;fill-opacity:1;fill-rule:nonzero;stroke:none"
         d="m 867.383,1729.06 c 22.082,-24.99 51.32,-46.2 86.543,-34.15 31.144,9.16 39.453,42.91 43.078,70.75 2.605,61.91 -15.156,124.92 -57.656,168.9 -29.536,30.42 -88.45,22.21 -109.817,-12.49 -33.347,-56.26 -4.617,-130.55 27.981,-180.4 2.957,-5.25 8.172,-7.84 9.871,-12.61 z m 252.997,-59.95 c 73.86,45.98 141.57,135.17 130.06,217.25 -16.05,71.97 -70.49,83.82 -103.53,75.7 -53.4,-8.86 -90.37,-54.92 -110.33,-105.41 -19.71,-57.99 -47.564,-142.3 7.18,-191.89 21.9,-13.75 54.55,-9.51 76.62,4.35 z m -319.228,-19.8 c 21.321,2.1 36.887,19.62 42.434,39.24 3.543,20.74 -3.625,38.59 -12.832,55.52 -16.301,30.08 -34.524,45.98 -71.055,57.62 -23.984,2.85 -43.344,-2.19 -59.621,-18.51 -18.644,-27.29 -9.844,-61.32 4.231,-82.84 20.625,-27.57 56.98,-59.8 96.843,-51.03 z m 703.168,91.5 c -22.62,29.28 -45.73,39.67 -68.45,44.48 -73.29,10.77 -150.84,-15.16 -212.67,-63.07 -47.4,-39.1 -110.06,-95.14 -83.4,-161.58 27.41,-50.12 78.46,-49.12 129.94,-45.35 42.02,5.28 81.82,15.3 117.92,31.71 42.82,19.39 59.15,31.26 99.96,71.59 39.45,44.02 34.61,90.07 16.7,122.22 z m -321.08,-417.05 c -5.41,-85.79 -24.67,-163.37 -49.74,-234.3 5.36,-6.28 90.06,-30.82 152.75,16.37 -93.61,17.12 -79.68,80.62 -73.36,81.29 27.49,-36.15 52.69,-49.39 98.29,-48.94 45.96,-3.04 64.78,-45.8 66,-42.5 -0.12,107.14 -90.7,205.27 -193.94,228.08 z m -155.12,61.47 c -24.8,41.5 -88.921,-55.38 -72.288,-94.41 24.793,-46.24 105.998,31.64 72.288,94.41 z M 793.742,1250.95 c 7.957,11.56 8.289,17.15 8.289,27.23 0,27.73 -22.511,50.15 -50.261,50.15 -15.684,0 -29.602,-7.21 -38.809,-18.52 l -2.031,-2.73 c -1.145,-1.4 -2.149,-2.8 -3.032,-4.31 -276.226,-411.723 -8.796,-640.239 205.832,-501.469 68.157,44.062 123.26,110.351 180.92,242.319 51.37,117.66 99.76,306.94 52.32,437.58 0,0 -71.39,214.34 -285.243,160.04 C 647.871,1586.95 481.184,1394.53 406.816,1230.13 350.898,1106.28 323.293,972.727 320.293,849.953 319.98,846.008 313.02,751.047 342.512,644.426 383.125,497.258 471.328,392.57 602.312,348.23 c 15.325,-4.449 42.758,-11.421 84.184,-11.968 177.469,2.285 339.804,170.547 381.834,231.777 11.02,16.043 16.81,27.754 18.65,36.68 2.31,5.488 3.59,11.504 3.59,17.832 0,25.508 -20.69,46.211 -46.22,46.211 -18.18,0 -33.75,-10.606 -41.29,-25.879 C 883.855,487.734 789.766,452.824 695.891,450.207 406.633,442.16 320.312,1023.2 610.469,1360.97 c 110.996,130.41 285.226,219.63 368.605,177.05 52.446,-26.8 86.346,-95.84 87.266,-174.02 0,0 9.54,-163.21 -108.594,-368.793 C 889.875,879.559 804.406,840.07 742.199,870.93 c -53.703,26.675 -62.062,104.902 -41.875,188.4 23.211,83.5 79.688,171.99 93.418,191.62" /></g></g></svg>